# xmcd
#
# Track frame offsets: 
#        150
#        19885
#        42700
#        60987
#        83353
#        102544
#        120356
#        139585
#        155845
#        174425
#
# Disc length: 2618 seconds
#
# Revision: 0
# Processed by: cddbd v1.5.2PL0 Copyright (c) Steve Scherf et al.
# Submitted via: ExactAudioCopyFreeDBPlugin 1.0
#
DISCID=7b0a380a
DTITLE=Sons Of Bill - Love And Logic
DYEAR=2014
DGENRE=alt country
TTITLE0=Big Unknown
TTITLE1=Brand New Paradigm
TTITLE2=Road To Canaan
TTITLE3=Lost In The Cosmos
TTITLE4=Bad Dancer
TTITLE5=Fishing Song
TTITLE6=Higher Than Mine
TTITLE7=Arms Of The Landslide
TTITLE8=Light A Light
TTITLE9=Hymnsong
EXTD=
EXTT0=
EXTT1=
EXTT2=
EXTT3=
EXTT4=
EXTT5=
EXTT6=
EXTT7=
EXTT8=
EXTT9=
PLAYORDER=
